<svg xmlns="http://www.w3.org/2000/svg" viewBox="0 0 225 225">
  <path d="M85.33,47.00 L73.67,56.00 L54.67,73.33 L46.67,79.00 L24.00,99.67 L24.33,102.67 L29.00,107.00 L35.00,111.00 L36.00,113.00 L40.33,113.67 L45.00,109.33 L45.67,107.33 L40.00,102.00 L40.00,99.67 L58.00,84.00 L61.33,84.33 L76.00,97.00 L76.00,100.00 L74.67,101.67 L69.33,105.00 L40.33,131.00 L27.33,141.00 L24.67,143.67 L24.00,147.67 L30.33,154.00 L41.67,162.33 L82.67,197.33 L85.33,199.00 L88.67,199.00 L147.67,148.67 L148.33,145.00 L147.33,142.33 L134.67,132.00 L127.33,137.33 L127.67,140.00 L132.00,144.33 L132.00,147.67 L116.00,162.00 L113.67,162.33 L110.33,161.00 L99.67,152.00 L98.00,150.33 L98.00,145.67 L147.00,104.00 L148.67,100.00 L147.67,97.00 L144.67,94.00 L131.33,84.00 L92.00,50.00 L87.67,47.00 L85.33,47.00 Z M85.00,61.33 L89.67,62.00 L102.00,73.67 L102.00,77.67 L87.67,90.00 L84.33,90.00 L70.00,77.67 L70.00,74.00 L85.00,61.33 Z M223.67,77.00 L213.67,79.00 L206.00,82.00 L192.67,91.00 L183.00,104.67 L179.33,119.33 L180.00,140.00 L183.00,149.33 L189.00,159.67 L202.33,171.00 L208.67,174.00 L221.00,177.00 L225.00,177.00 L225.00,160.00 L216.33,157.00 L211.67,154.00 L206.00,148.00 L201.00,135.33 L200.67,121.33 L203.00,111.00 L208.00,103.33 L215.67,97.00 L225.00,93.67 L225.00,77.00 L223.67,77.00 Z M113.00,83.00 L117.00,85.00 L130.33,96.33 L133.33,99.33 L132.67,102.33 L128.33,105.00 L89.67,139.00 L84.33,139.00 L73.67,130.33 L70.67,130.33 L68.67,131.67 L65.00,136.00 L75.00,145.00 L76.00,148.67 L74.67,151.67 L62.33,162.00 L57.00,162.00 L43.00,150.33 L41.00,147.33 L41.67,143.33 L74.67,115.67 L82.33,108.00 L84.33,107.00 L89.67,107.67 L98.33,116.00 L101.33,116.00 L105.00,113.00 L107.00,111.00 L107.00,108.33 L96.00,100.00 L95.67,97.33 L113.00,83.00 Z M85.00,156.67 L89.67,157.00 L100.67,166.00 L103.00,169.33 L102.00,173.67 L87.67,185.33 L82.33,183.33 L72.67,175.00 L70.33,171.33 L72.33,167.00 L85.00,156.67 Z" fill="#FFFFFF" fill-rule="evenodd"></path>
</svg>