<svg xmlns="http://www.w3.org/2000/svg" viewBox="0 0 861 246">
  <path d="M798.00,46.00 L788.50,49.00 L779.50,56.50 L774.00,68.00 L774.00,79.50 L778.00,88.50 L786.00,97.00 L792.00,100.00 L797.00,101.00 L811.00,100.00 L817.00,97.00 L818.00,95.00 L821.00,93.50 L828.00,82.50 L828.00,65.50 L822.00,55.00 L814.50,49.00 L805.00,46.00 L798.00,46.00 Z M800.00,48.50 L807.00,49.00 L814.50,52.00 L821.00,57.50 L826.00,68.50 L826.00,79.00 L822.50,87.50 L816.50,94.00 L808.00,98.00 L795.00,98.00 L786.50,94.00 L779.00,85.50 L776.50,78.00 L777.00,66.50 L779.00,64.00 L780.00,60.00 L788.50,52.00 L795.50,49.00 L800.00,48.50 Z M792.50,57.00 L791.50,57.50 L791.50,88.00 L797.00,88.50 L797.00,76.50 L797.50,75.50 L801.50,75.50 L805.00,80.50 L807.00,87.50 L808.00,88.50 L814.00,88.50 L814.00,85.50 L812.00,83.00 L811.00,78.00 L809.00,74.50 L807.50,74.00 L808.50,72.00 L811.50,70.50 L812.50,68.00 L811.50,60.50 L806.50,57.00 L792.50,57.00 Z M98.00,60.00 L90.00,66.00 L89.00,68.00 L86.50,69.00 L85.50,71.00 L83.00,72.00 L74.00,81.00 L72.00,81.50 L71.00,83.50 L69.00,84.00 L67.50,86.50 L56.00,95.00 L54.00,98.00 L49.00,101.00 L47.50,103.50 L37.00,112.50 L37.00,115.00 L39.00,117.50 L45.00,121.50 L46.00,123.50 L48.00,124.00 L49.00,126.00 L52.50,127.00 L58.50,121.50 L58.50,119.50 L53.00,115.00 L53.00,112.50 L71.00,97.00 L74.00,97.00 L89.00,110.00 L89.00,113.00 L87.50,115.00 L83.00,117.50 L72.00,127.00 L71.00,129.00 L69.00,129.50 L54.50,142.00 L53.50,144.00 L49.00,146.50 L38.00,156.00 L37.00,161.00 L89.50,205.50 L94.00,208.00 L95.00,210.00 L98.00,212.00 L102.00,212.00 L161.00,161.50 L161.00,156.00 L148.00,145.00 L146.50,145.00 L140.50,150.00 L141.00,153.50 L145.00,157.00 L144.50,161.50 L129.00,175.00 L124.00,174.50 L112.50,165.00 L111.00,163.50 L111.00,158.50 L121.00,149.50 L123.00,149.00 L124.50,146.50 L129.00,144.00 L130.00,142.00 L141.50,132.00 L143.00,132.00 L147.00,127.00 L148.50,127.00 L154.50,121.00 L157.00,120.00 L161.00,116.00 L161.50,112.00 L158.00,107.00 L156.50,107.00 L150.50,101.00 L141.50,94.50 L140.00,92.00 L138.50,92.00 L130.00,84.00 L127.50,83.00 L126.50,81.00 L109.50,68.00 L105.00,63.00 L101.00,60.00 L98.00,60.00 Z M798.00,62.00 L804.50,62.50 L806.00,64.50 L805.50,69.00 L802.50,71.00 L798.00,71.00 L798.00,62.00 Z M97.50,74.50 L102.50,75.00 L115.00,86.50 L114.50,91.50 L110.50,95.00 L109.00,95.00 L101.00,103.00 L97.50,103.00 L83.00,91.00 L83.00,87.00 L97.50,74.50 Z M446.50,83.00 L445.50,83.50 L445.50,125.50 L437.50,118.00 L432.50,116.00 L418.50,115.00 L408.00,118.00 L404.00,121.00 L401.00,124.00 L396.00,133.00 L393.00,147.00 L393.00,157.00 L396.00,171.50 L404.00,184.00 L415.50,190.00 L431.00,190.00 L441.00,185.00 L446.00,179.50 L447.00,180.00 L447.00,189.50 L464.50,189.00 L464.50,83.50 L446.50,83.00 Z M691.00,83.00 L690.50,189.50 L710.00,189.50 L710.50,155.00 L734.50,189.50 L758.50,189.50 L749.00,176.00 L745.00,172.50 L742.50,167.50 L739.00,164.00 L739.00,162.50 L737.00,161.50 L736.50,159.50 L728.00,149.50 L729.00,147.00 L733.00,144.00 L733.00,142.50 L755.00,116.00 L733.00,116.00 L721.50,130.00 L721.00,132.00 L719.00,133.00 L716.00,138.50 L714.00,139.50 L714.00,141.00 L710.00,144.50 L710.00,83.00 L691.00,83.00 Z M357.00,85.00 L356.50,103.00 L375.00,103.00 L375.00,85.00 L357.00,85.00 Z M243.50,89.00 L226.50,92.00 L223.50,94.00 L218.50,95.00 L208.50,101.50 L202.00,108.00 L196.00,117.50 L195.00,123.00 L193.00,126.50 L192.00,135.50 L193.00,153.50 L195.00,157.00 L196.00,162.50 L202.00,173.00 L211.50,181.50 L221.50,187.00 L233.50,190.00 L257.00,190.00 L263.50,188.00 L273.00,187.00 L278.00,184.50 L278.00,132.50 L238.00,132.50 L238.50,148.00 L259.00,148.00 L259.00,172.50 L258.00,173.00 L242.00,174.00 L231.50,171.00 L224.50,167.00 L221.00,163.50 L215.00,152.50 L213.50,144.50 L213.50,135.50 L215.00,127.00 L219.00,118.50 L228.50,110.00 L239.50,106.00 L250.50,105.50 L262.50,107.00 L273.00,111.00 L274.00,110.50 L274.50,93.00 L262.00,90.00 L243.50,89.00 Z M509.50,95.00 L506.00,97.00 L500.00,98.00 L497.50,100.00 L491.50,101.00 L491.50,115.50 L490.50,116.50 L477.00,117.00 L477.00,130.50 L491.00,131.00 L491.00,168.00 L494.00,180.00 L497.00,184.00 L500.50,187.00 L507.50,190.00 L524.50,190.00 L528.00,188.50 L528.00,174.00 L519.00,174.50 L514.50,173.50 L511.00,170.00 L510.00,167.00 L510.00,131.00 L526.50,130.50 L527.00,117.00 L510.00,116.00 L509.50,95.00 Z M125.50,96.00 L129.00,97.00 L138.00,106.00 L139.50,106.00 L143.00,109.00 L146.50,112.50 L145.50,115.50 L141.00,118.00 L139.50,120.50 L124.50,132.50 L123.00,135.00 L121.00,135.50 L111.50,144.50 L107.00,147.00 L103.00,152.00 L97.00,152.00 L87.00,143.50 L83.00,143.50 L81.00,145.00 L78.00,148.00 L78.00,149.50 L88.50,158.50 L89.00,162.00 L88.00,164.50 L86.00,165.00 L85.00,167.00 L75.50,175.00 L70.00,175.00 L56.00,163.50 L54.00,160.50 L54.50,156.50 L97.00,120.00 L102.50,120.50 L104.00,123.00 L106.00,123.50 L111.50,129.00 L114.50,129.00 L117.50,126.50 L120.00,124.00 L120.00,121.50 L111.00,115.00 L108.50,111.00 L109.00,109.50 L111.00,109.00 L112.00,107.00 L125.50,96.00 Z M569.00,114.00 L555.00,118.00 L550.50,121.00 L543.00,129.50 L540.00,136.00 L538.00,145.00 L538.00,159.50 L540.00,169.00 L542.00,171.50 L543.00,175.50 L549.50,183.00 L555.00,187.00 L562.50,190.00 L582.00,191.00 L590.00,190.00 L599.50,187.00 L601.00,185.50 L601.00,170.50 L588.00,175.50 L575.50,176.50 L568.50,175.50 L563.00,173.00 L558.00,166.50 L557.00,158.50 L606.00,158.50 L605.00,140.50 L603.00,132.50 L598.00,124.00 L594.50,120.50 L587.00,116.00 L578.50,114.00 L569.00,114.00 Z M336.00,115.50 L331.50,116.00 L323.50,120.50 L320.00,124.00 L317.00,132.00 L316.00,130.00 L316.00,116.00 L299.00,116.00 L299.50,189.50 L318.00,189.50 L318.00,155.50 L320.00,143.50 L325.50,136.00 L331.00,133.00 L338.50,132.50 L343.00,133.50 L343.00,116.00 L336.00,115.50 Z M655.50,115.50 L641.50,118.00 L633.00,123.00 L627.00,129.00 L626.00,132.00 L624.00,133.50 L623.00,138.50 L621.00,141.50 L620.50,160.00 L624.00,172.00 L634.00,183.00 L640.50,187.00 L647.50,189.00 L664.00,190.00 L675.00,187.00 L674.00,171.50 L671.50,173.00 L663.00,174.50 L651.00,173.00 L643.50,166.50 L640.00,157.50 L640.50,145.00 L646.50,135.50 L652.00,132.00 L658.00,130.50 L664.00,130.50 L672.00,132.50 L673.00,117.50 L667.00,116.00 L655.50,115.50 Z M357.00,116.00 L356.50,189.50 L375.00,189.50 L375.00,116.00 L357.00,116.00 Z M569.00,127.00 L575.00,127.00 L582.00,130.00 L586.00,135.00 L588.00,140.50 L588.00,145.00 L556.50,145.00 L557.00,139.50 L560.00,133.00 L563.50,129.50 L569.00,127.00 Z M427.00,130.00 L432.00,130.50 L438.00,133.00 L441.00,136.00 L445.00,145.00 L445.50,157.00 L444.00,165.50 L441.00,170.50 L435.00,175.00 L432.50,175.50 L425.50,175.50 L420.00,173.00 L416.00,168.50 L413.00,160.50 L413.00,145.50 L415.00,139.50 L420.00,133.00 L427.00,130.00 Z M98.50,169.50 L104.00,171.00 L116.00,182.00 L115.00,187.00 L109.00,191.00 L102.00,198.00 L98.00,198.00 L95.50,196.50 L94.00,194.00 L92.50,194.00 L85.50,188.00 L83.50,185.00 L83.50,182.50 L86.00,179.00 L88.00,178.50 L89.00,176.50 L98.50,169.50 Z" fill="#FFFFFF" fill-rule="evenodd"></path>
</svg>